<svg xmlns="http://www.w3.org/2000/svg" viewBox="0 0 1600 600"><defs><linearGradient id="bg" x1="0" x2="1"><stop stop-color="#021f18"/><stop offset=".55" stop-color="#064e3b"/><stop offset="1" stop-color="#052e2b"/></linearGradient><pattern id="grid" width="50" height="50" patternUnits="userSpaceOnUse"><path d="M50 0H0V50" fill="none" stroke="#35d07f" stroke-opacity=".12"/></pattern><filter id="glow"><feGaussianBlur stdDeviation="5"/></filter></defs><rect width="1600" height="600" fill="url(#bg)"/><rect width="1600" height="600" fill="url(#grid)"/><circle cx="800" cy="300" r="205" fill="#062f27" stroke="#31d27d" stroke-opacity=".55" stroke-width="2"/><ellipse cx="800" cy="300" rx="205" ry="85" fill="none" stroke="#31d27d" stroke-opacity=".3"/><ellipse cx="800" cy="300" rx="120" ry="205" fill="none" stroke="#31d27d" stroke-opacity=".22"/><path d="M620 250c45-85 110-108 165-86l38 50 75-16 75 55-30 72-70 7-40 91-86-27-10-67-72-27z" fill="#138a62" fill-opacity=".75"/><path d="M820 208l60 12 22 45-45 27-55-22zM950 318l92 20-25 52-82-3zM690 390l65 20-12 47-58-23z" fill="#20b879" fill-opacity=".65"/><g fill="#53f29a"><circle cx="530" cy="190" r="5"/><circle cx="1120" cy="250" r="6"/><circle cx="1030" cy="430" r="5"/><circle cx="470" cy="380" r="4"/></g><g stroke="#53f29a" stroke-opacity=".65" fill="none"><path d="M530 190Q670 250 800 300T1120 250"/><path d="M470 380Q650 330 800 300T1030 430"/></g><text x="70" y="90" fill="#a7f3d0" font-family="Arial,sans-serif" font-size="20" font-weight="700" letter-spacing="5">CYBER FORENSICS TZ</text><text x="70" y="130" fill="#fff" font-family="Arial,sans-serif" font-size="38" font-weight="800">Digital Incident Intelligence</text><text x="70" y="166" fill="#b7dcd0" font-family="Arial,sans-serif" font-size="18">Evidence • Incidents • Analysis • Response</text><g transform="translate(1270 110)"><rect width="220" height="110" rx="12" fill="#021f18" stroke="#31d27d" stroke-opacity=".4"/><text x="20" y="35" fill="#70e8ad" font-family="Arial" font-size="13">FORENSIC SIGNAL</text><text x="20" y="68" fill="#fff" font-family="Arial" font-size="24" font-weight="700">LIVE MAP</text><text x="20" y="91" fill="#a7f3d0" font-family="Arial" font-size="11">Aggregated regional activity</text></g></svg>